<?xml version="1.0" encoding="UTF-8"?>
<svg xmlns="http://www.w3.org/2000/svg" version="1.1" xmlns:xlink="http://www.w3.org/1999/xlink" viewBox="0 0 1900 1100">
  <!-- Generator: Adobe Illustrator 29.2.1, SVG Export Plug-In . SVG Version: 2.1.0 Build 116)  -->
  <defs>
    <style>
      .st0 {
        fill: url(#linear-gradient2);
      }

      .st1 {
        fill: #8a6600;
      }

      .st2 {
        fill: #231f20;
      }

      .st3 {
        fill: url(#linear-gradient1);
      }

      .st4 {
        fill: #705100;
      }

      .st5 {
        fill: #003a24;
      }

      .st6 {
        fill: #684b00;
      }

      .st7 {
        fill: #6c4e00;
      }

      .st8 {
        fill: url(#linear-gradient);
      }

      .st9 {
        fill: #fdb913;
        stroke: #9e6905;
        stroke-miterlimit: 10;
      }
    </style>
    <linearGradient id="linear-gradient" x1="950" y1="23.02" x2="950" y2="149.36" gradientUnits="userSpaceOnUse">
      <stop offset="0" stop-color="#724600"/>
      <stop offset=".63" stop-color="#cc9a26"/>
      <stop offset=".93" stop-color="#f2be37"/>
    </linearGradient>
    <linearGradient id="linear-gradient1" x1="951.38" y1="445.79" x2="951.38" y2="863.57" gradientUnits="userSpaceOnUse">
      <stop offset="0" stop-color="#002d0f"/>
      <stop offset=".17" stop-color="#032e0f"/>
      <stop offset=".31" stop-color="#0c330f"/>
      <stop offset=".42" stop-color="#1d3b10"/>
      <stop offset=".54" stop-color="#344710"/>
      <stop offset=".64" stop-color="#525611"/>
      <stop offset=".74" stop-color="#766913"/>
      <stop offset=".84" stop-color="#a27f14"/>
      <stop offset=".93" stop-color="#d39816"/>
      <stop offset="1" stop-color="#fbad18"/>
    </linearGradient>
    <linearGradient id="linear-gradient2" x1="951.38" y1="880.22" x2="951.38" y2="1065.87" gradientUnits="userSpaceOnUse">
      <stop offset="0" stop-color="#002d0f"/>
      <stop offset=".2" stop-color="#003313"/>
      <stop offset="1" stop-color="#004821"/>
    </linearGradient>
  </defs>
  <g id="Layer_1">
    <rect class="st8" width="1900" height="1100"/>
  </g>
  <g id="GoldPiles">
    <path class="st9" d="M697.49,221.08c-7.78,53.91-121.04,104.19-180.43,104.19s-111.89-68.46-154.29-102.66c-84.81-68.4-94.43-140.67,149.83-141.27,82.51-.21,195.68,64.99,184.9,139.74Z"/>
    <path class="st9" d="M911.48,233.93c-7.78,53.91-113.72,35.23-173.11,35.23s-168.66,20.31-161.62-33.7c8.2-62.84,81.7-157.47,126.05-143.33,69.7,22.21,219.45,67.05,208.67,141.8Z"/>
    <path class="st9" d="M1158.6,221.08c-7.78,53.91-89.1,112.76-148.49,112.76s-196.49-13.88-246.83-34.69c-95.78-39.59,32.77-182.57,222.22-227.43,80.29-19.01,183.89,74.61,173.11,149.36Z"/>
    <path class="st9" d="M1373.06,214.34c-37.4,39.6-182.58,34.56-230.88,69.11-120.85,86.47-253.92,12.12-208.34-17.7,73.87-48.34,219.82-205.67,266.11-200.77,140.15,14.84,221.83,97.77,173.11,149.36Z"/>
    <path class="st9" d="M1604.05,206.56c5.2,82.34-141.71,101.74-201.1,101.74s-252.98-68.25-220.96-112.31c48.12-66.21,97.11-107.88,248.95-138.8,67.23-13.69,167.52,60.85,173.11,149.36Z"/>
    <path class="st9" d="M1900.61,96.69c-.51,67.4-.61,89.9-.57,184.1-59.39,0-243.72,8.69-236.68-45.33,8.2-62.84,116.79-138.37,161.62-150.89,64.4-13.41,75.63,12.12,75.63,12.12Z"/>
    <path class="st9" d="M1893.83,246.04c16.89,51.79-139.67,9.19-199.06,9.19s-127.76,8.97-161.62-33.7c-42.1-53.07,10.1-203.41,161.62-150.89,71.35,24.73,183.74,128.43,199.06,175.41Z"/>
    <path class="st9" d="M530.44,363.12c1.26,66.71-209.84-64.06-265.28-80.8-56.85-17.17-152.29,19.96-161.62-33.7-16.23-93.32,74.39-185.54,161.62-150.89,72.13,28.65,263.4,165.4,265.28,265.4Z"/>
    <path class="st9" d="M219.2,221.08c-7.78,53.91-160.48,86.3-219.86,86.3C.23,215.8-.66,174.95-.66,111.97c.89-16.34-13.06-25.19,46.76-40.25,80.01-20.15,183.89,74.61,173.11,149.36Z"/>
    <path class="st9" d="M1589.02,388.97c-18.73-71.22-48.07-211.04,135.37-200.86,193.46,10.73,178.49,35.65,175.62,200.86"/>
    <path class="st9" d="M1323.23,388.97c2.87-61.27,13.42-124.54,135.37-200.86,134.4-84.11,93.46,83.6,222.34,200.86"/>
    <path class="st9" d="M922.95,389.33c90.89-85.79,124.06-218.37,267.91-218.96,177-.73,103.83,115.81,218.77,218.6"/>
    <path class="st9" d="M756.42,388.97c2.87-61.27-143.86-197.52,0-198.11,177-.73,144.06,77.96,357.7,198.11"/>
    <path class="st9" d="M465.36,388.97c40.14-21.41,39.85-80.77,113.42-158.28,148.76-156.7,228.6,20.02,244.28,158.28"/>
    <path class="st9" d="M174.3,388.97c2.87-61.27-.5-248.14,135.37-200.86,151.84,52.84,62.89,166.53,222.34,200.86"/>
    <path class="st9" d="M0,388.97c2.87-61.27-23.94-200.87,97.49-200.86,177,0,88.44,124.28,222.34,200.86"/>
  </g>
  <g id="Layer_4">
    <g>
      <polygon class="st5" points="1857.19 418.13 1857.19 57.77 1819.27 20.88 1486.66 20.88 1448.74 57.77 1448.74 418.13 1361.93 418.13 1361.93 57.77 1324.01 20.88 1030.42 20.88 992.51 57.77 992.51 418.13 908.93 418.13 908.93 57.77 871.02 20.88 538.4 20.88 500.48 57.77 500.48 418.13 413.67 418.13 413.67 57.77 375.75 20.88 82.17 20.88 44.25 57.77 44.25 418.13 -.14 418.13 -.14 20.88 -.5 20.88 -.5 -.5 1901.94 -.5 1901.94 20.88 1901.58 20.88 1901.58 418.13 1857.19 418.13"/>
      <path class="st2" d="M1901.44,0v20.38h-.36v397.25h-43.39V57.56l-38.21-37.18h-333.03l-38.21,37.18v360.07h-85.81V57.56l-38.21-37.18h-293.99l-38.21,37.18v360.07h-82.57V57.56l-38.21-37.18h-333.03l-38.21,37.18v360.07h-85.81V57.56l-38.21-37.18H81.96l-38.21,37.18v360.07H.36V20.38H0V0h1901.44M1902.44-1H-1v22.38h.36v397.25h45.39V57.98l37.62-36.6h293.18l37.62,36.6v360.65h87.81V57.98l37.62-36.6h332.21l37.62,36.6v360.65h84.57V57.98l37.62-36.6h293.18l37.62,36.6v360.65h87.81V57.98l37.62-36.6h332.21l37.62,36.6v360.65h45.39V21.38h.36V-1h0Z"/>
    </g>
    <polygon class="st6" points="1588.61 11.7 1513.95 11.7 1480.93 11.7 1458.26 11.7 1437.12 11.7 1437.12 11.7 1418.21 49.64 1418.21 49.65 1418.21 49.65 1418.21 391.36 1419.92 391.36 1419.92 51.93 1437.69 16.28 1454.39 16.28 1426.19 49.64 1426.19 49.65 1426.19 49.65 1426.19 391.36 1429.09 391.36 1429.09 51.93 1459.23 16.28 1475.71 16.28 1437.69 49.64 1437.69 49.65 1437.69 49.65 1437.69 391.36 1441.6 391.36 1441.6 51.93 1482.23 16.28 1513.95 16.28 1588.61 16.28 1656.68 16.28 1656.68 11.7 1588.61 11.7"/>
    <polygon class="st6" points="1219.27 11.7 1293.92 11.7 1326.95 11.7 1349.61 11.7 1370.76 11.7 1370.76 11.7 1389.66 49.64 1389.66 49.65 1389.66 49.65 1389.66 391.36 1387.95 391.36 1387.95 51.93 1370.19 16.28 1353.48 16.28 1381.68 49.64 1381.68 49.65 1381.68 49.65 1381.68 391.36 1378.78 391.36 1378.78 51.93 1348.65 16.28 1332.17 16.28 1370.19 49.64 1370.18 49.65 1370.19 49.65 1370.19 391.36 1366.28 391.36 1366.28 51.93 1325.64 16.28 1293.92 16.28 1219.27 16.28 1151.2 16.28 1151.2 11.7 1219.27 11.7"/>
    <polygon class="st6" points="1134.89 11.7 1060.23 11.7 1027.21 11.7 1004.54 11.7 983.39 11.7 983.39 11.7 964.49 49.64 964.49 49.65 964.49 49.65 964.49 391.36 966.2 391.36 966.2 51.93 983.96 16.28 1000.67 16.28 972.47 49.64 972.47 49.65 972.47 49.65 972.47 391.36 975.37 391.36 975.37 51.93 1005.51 16.28 1021.99 16.28 983.97 49.64 983.97 49.65 983.97 49.65 983.97 391.36 987.88 391.36 987.88 51.93 1028.51 16.28 1060.23 16.28 1134.89 16.28 1202.95 16.28 1202.95 11.7 1134.89 11.7"/>
    <polygon class="st6" points="765.54 11.7 840.2 11.7 873.22 11.7 895.89 11.7 917.04 11.7 917.04 11.7 935.94 49.64 935.94 49.65 935.94 49.65 935.94 391.36 934.23 391.36 934.23 51.93 916.47 16.28 899.76 16.28 927.96 49.64 927.96 49.65 927.96 49.65 927.96 391.36 925.06 391.36 925.06 51.93 894.92 16.28 878.44 16.28 916.46 49.64 916.46 49.65 916.46 49.65 916.46 391.36 912.55 391.36 912.55 51.93 871.92 16.28 840.2 16.28 765.54 16.28 697.47 16.28 697.47 11.7 765.54 11.7"/>
    <polygon class="st6" points="641.1 11.7 566.44 11.7 533.42 11.7 510.76 11.7 489.61 11.7 489.61 11.7 470.71 49.64 470.71 49.65 470.71 49.65 470.71 391.36 472.42 391.36 472.42 51.93 490.18 16.28 506.88 16.28 478.69 49.64 478.69 49.65 478.69 49.65 478.69 391.36 481.59 391.36 481.59 51.93 511.72 16.28 528.2 16.28 490.18 49.64 490.18 49.65 490.18 49.65 490.18 391.36 494.09 391.36 494.09 51.93 534.73 16.28 566.44 16.28 641.1 16.28 709.17 16.28 709.17 11.7 641.1 11.7"/>
    <polygon class="st6" points="271.76 11.7 346.42 11.7 379.44 11.7 402.11 11.7 423.25 11.7 423.25 11.7 442.16 49.64 442.16 49.65 442.16 49.65 442.16 391.36 440.45 391.36 440.45 51.93 422.68 16.28 405.98 16.28 434.18 49.64 434.17 49.65 434.18 49.65 434.18 391.36 431.28 391.36 431.28 51.93 401.14 16.28 384.66 16.28 422.68 49.64 422.68 49.65 422.68 49.65 422.68 391.36 418.77 391.36 418.77 51.93 378.14 16.28 346.42 16.28 271.76 16.28 203.69 16.28 203.69 11.7 271.76 11.7"/>
    <polygon class="st6" points="1717.21 11.7 1791.87 11.7 1824.89 11.7 1847.56 11.7 1868.71 11.7 1868.71 11.7 1887.61 49.64 1887.61 49.65 1887.61 49.65 1887.61 391.36 1885.9 391.36 1885.9 51.93 1868.14 16.28 1851.43 16.28 1879.63 49.64 1879.63 49.65 1879.63 49.65 1879.63 391.36 1876.73 391.36 1876.73 51.93 1846.59 16.28 1830.12 16.28 1868.14 49.64 1868.13 49.65 1868.14 49.65 1868.14 391.36 1864.22 391.36 1864.22 51.93 1823.59 16.28 1791.87 16.28 1717.21 16.28 1649.15 16.28 1649.15 11.7 1717.21 11.7"/>
    <polygon class="st6" points="186.92 11.7 112.26 11.7 79.24 11.7 56.57 11.7 35.42 11.7 35.42 11.7 16.52 49.64 16.52 49.65 16.52 49.65 16.52 391.36 18.23 391.36 18.23 51.93 35.99 16.28 52.7 16.28 24.5 49.64 24.5 49.65 24.5 49.65 24.5 391.36 27.4 391.36 27.4 51.93 57.54 16.28 74.02 16.28 36 49.64 36 49.65 36 49.65 36 391.36 39.91 391.36 39.91 51.93 80.54 16.28 112.26 16.28 186.92 16.28 254.99 16.28 254.99 11.7 186.92 11.7"/>
  </g>
  <g id="Layer_5">
    <rect class="st3" x="1.38" y="431.93" width="1900" height="668.07"/>
  </g>
  <g id="Layer_6">
    <g>
      <polygon class="st5" points="1855.97 863.27 1855.97 529.88 1818.37 496.06 1486.12 496.06 1448.52 529.88 1448.52 863.27 1360.71 863.27 1360.71 529.88 1323.11 496.06 1029.88 496.06 992.29 529.88 992.29 863.27 907.71 863.27 907.71 529.88 870.12 496.06 537.86 496.06 500.26 529.88 500.26 863.27 412.45 863.27 412.45 529.88 374.85 496.06 81.63 496.06 44.03 529.88 44.03 863.27 -1.36 863.27 -1.36 496.06 -1.72 496.06 -1.72 475.22 1901.72 475.22 1901.72 496.06 1901.36 496.06 1901.36 863.27 1855.97 863.27"/>
      <path class="st2" d="M1900.72,476.22v18.84h-.36v367.21h-43.39v-332.84l-38.21-34.37h-333.03l-38.21,34.37v332.84h-85.81v-332.84l-38.21-34.37h-293.99l-38.21,34.37v332.84h-82.57v-332.84l-38.21-34.37h-333.03l-38.21,34.37v332.84h-85.81v-332.84l-38.21-34.37H81.24l-38.21,34.37v332.84H-.36v-367.21h-.36v-18.84h1901.44M1902.72,474.22H-2.72v22.84h.36v367.21h47.39v-333.95l36.98-33.26h292.46l36.98,33.26v333.95h89.81v-333.95l36.98-33.26h331.49l36.98,33.26v333.95h86.57v-333.95l36.98-33.26h292.46l36.98,33.26v333.95h89.81v-333.95l36.98-33.26h331.49l36.98,33.26v333.95h47.39v-367.21h.36v-22.84h0Z"/>
    </g>
    <polygon class="st7" points="639.13 483.63 564.48 483.63 531.45 483.63 508.79 483.63 487.64 483.63 487.64 483.64 468.74 521.57 468.74 521.58 468.74 521.58 468.74 863.29 470.45 863.29 470.45 523.87 488.21 488.22 504.91 488.22 476.72 521.57 476.72 521.58 476.72 521.58 476.72 863.29 479.62 863.29 479.62 523.87 509.75 488.22 526.23 488.22 488.21 521.57 488.22 521.58 488.21 521.58 488.21 863.29 492.12 863.29 492.12 523.87 532.76 488.22 564.48 488.22 639.13 488.22 707.2 488.22 707.2 483.63 639.13 483.63"/>
    <polygon class="st7" points="273.8 483.63 348.46 483.63 381.48 483.63 404.15 483.63 425.29 483.63 425.29 483.64 444.2 521.57 444.2 521.58 444.2 521.58 444.2 863.29 442.49 863.29 442.49 523.87 424.72 488.22 408.02 488.22 436.22 521.57 436.22 521.58 436.22 521.58 436.22 863.29 433.32 863.29 433.32 523.87 403.18 488.22 386.7 488.22 424.72 521.57 424.72 521.58 424.72 521.58 424.72 863.29 420.81 863.29 420.81 523.87 380.18 488.22 348.46 488.22 273.8 488.22 205.73 488.22 205.73 483.63 273.8 483.63"/>
    <polygon class="st7" points="768.25 483.63 842.91 483.63 875.93 483.63 898.6 483.63 919.75 483.63 919.75 483.64 938.65 521.57 938.65 521.58 938.65 521.58 938.65 863.29 936.94 863.29 936.94 523.87 919.18 488.22 902.47 488.22 930.67 521.57 930.67 521.58 930.67 521.58 930.67 863.29 927.77 863.29 927.77 523.87 897.63 488.22 881.15 488.22 919.17 521.57 919.17 521.58 919.17 521.58 919.17 863.29 915.26 863.29 915.26 523.87 874.63 488.22 842.91 488.22 768.25 488.22 700.18 488.22 700.18 483.63 768.25 483.63"/>
    <polygon class="st7" points="186.29 483.63 111.63 483.63 78.61 483.63 55.94 483.63 34.8 483.63 34.8 483.64 15.89 521.57 15.9 521.58 15.89 521.58 15.89 863.29 17.6 863.29 17.6 523.87 35.37 488.22 52.07 488.22 23.87 521.57 23.88 521.58 23.87 521.58 23.87 863.29 26.78 863.29 26.78 523.87 56.91 488.22 73.39 488.22 35.37 521.57 35.37 521.58 35.37 521.58 35.37 863.29 39.28 863.29 39.28 523.87 79.92 488.22 111.63 488.22 186.29 488.22 254.36 488.22 254.36 483.63 186.29 483.63"/>
    <polygon class="st7" points="1590.17 485.86 1515.52 485.86 1482.49 485.86 1459.83 485.86 1438.68 485.86 1438.68 485.86 1419.78 523.8 1419.78 523.81 1419.78 523.81 1419.78 865.52 1421.49 865.52 1421.49 526.1 1439.25 490.44 1455.96 490.44 1427.76 523.8 1427.76 523.81 1427.76 523.81 1427.76 865.52 1430.66 865.52 1430.66 526.1 1460.79 490.44 1477.27 490.44 1439.25 523.8 1439.26 523.81 1439.25 523.81 1439.25 865.52 1443.17 865.52 1443.17 526.1 1483.8 490.44 1515.52 490.44 1590.17 490.44 1658.24 490.44 1658.24 485.86 1590.17 485.86"/>
    <polygon class="st7" points="1220.83 485.86 1295.49 485.86 1328.51 485.86 1351.18 485.86 1372.32 485.86 1372.32 485.86 1391.23 523.8 1391.23 523.81 1391.23 523.81 1391.23 865.52 1389.52 865.52 1389.52 526.1 1371.75 490.44 1355.05 490.44 1383.25 523.8 1383.25 523.81 1383.25 523.81 1383.25 865.52 1380.35 865.52 1380.35 526.1 1350.21 490.44 1333.73 490.44 1371.75 523.8 1371.75 523.81 1371.75 523.81 1371.75 865.52 1367.84 865.52 1367.84 526.1 1327.21 490.44 1295.49 490.44 1220.83 490.44 1152.76 490.44 1152.76 485.86 1220.83 485.86"/>
    <polygon class="st7" points="1713.87 485.86 1788.53 485.86 1821.55 485.86 1844.21 485.86 1865.36 485.86 1865.36 485.86 1884.26 523.8 1884.26 523.81 1884.26 523.81 1884.26 865.52 1882.55 865.52 1882.55 526.1 1864.79 490.44 1848.09 490.44 1876.29 523.8 1876.28 523.81 1876.29 523.81 1876.29 865.52 1873.38 865.52 1873.38 526.1 1843.25 490.44 1826.77 490.44 1864.79 523.8 1864.79 523.81 1864.79 523.81 1864.79 865.52 1860.88 865.52 1860.88 526.1 1820.24 490.44 1788.53 490.44 1713.87 490.44 1645.8 490.44 1645.8 485.86 1713.87 485.86"/>
    <polygon class="st7" points="1130.28 485.86 1055.62 485.86 1022.6 485.86 999.93 485.86 978.79 485.86 978.79 485.86 959.88 523.8 959.88 523.81 959.88 523.81 959.88 865.52 961.59 865.52 961.59 526.1 979.36 490.44 996.06 490.44 967.86 523.8 967.86 523.81 967.86 523.81 967.86 865.52 970.76 865.52 970.76 526.1 1000.9 490.44 1017.38 490.44 979.36 523.8 979.36 523.81 979.36 523.81 979.36 865.52 983.27 865.52 983.27 526.1 1023.9 490.44 1055.62 490.44 1130.28 490.44 1198.35 490.44 1198.35 485.86 1130.28 485.86"/>
  </g>
  <g id="Layer_7">
    <g>
      <rect class="st0" x="3.38" y="864.27" width="1896" height="233.73"/>
      <path class="st2" d="M1897.38,866.27v229.73H5.38v-229.73h1892M1901.38,862.27H1.38v237.73h1900v-237.73h0Z"/>
    </g>
  </g>
  <g id="Layer_8">
    <g>
      <g>
        <polygon class="st5" points="1883.09 1400.98 1883.09 931.58 1864.53 880.04 1439.51 880.04 1420.96 931.57 1420.95 1400.98 1390.05 1400.98 1390.05 931.58 1371.5 880.04 979.61 880.04 961.06 931.57 961.06 1400.98 937.47 1400.98 937.47 931.58 918.92 880.04 486.92 880.04 468.36 931.57 468.36 1400.98 441.47 1400.98 441.47 931.58 422.92 880.04 35.63 880.04 17.07 931.57 17.07 1400.98 -1.54 1400.98 -1.54 892.77 -1.9 892.77 -1.9 864.34 1901.9 864.34 1901.9 892.77 1901.54 892.77 1901.54 1400.98 1883.09 1400.98"/>
        <path class="st2" d="M1900.72,865.52v26.07h-.36v508.22h-16.09v-468.43h0,0s-18.9-52.51-18.9-52.51h0s-21.15,0-21.15,0h-405.53s-18.9,52.51-18.9,52.51h0s0,0,0,0v468.43h-28.55v-468.43h0,0s-18.9-52.51-18.9-52.51h0s-21.15,0-21.15,0h-372.39s-18.9,52.51-18.9,52.51h0s0,0,0,0v468.43h-21.23v-468.43h0,0s-18.9-52.51-18.9-52.51h0s-21.15,0-21.15,0h-412.51s-18.9,52.51-18.9,52.51h0s0,0,0,0v468.43h-24.54v-468.43h0,0s-18.9-52.51-18.9-52.51h0s-21.15,0-21.15,0H34.8s-18.9,52.51-18.9,52.51h0s0,0,0,0v468.43H-.36v-508.22h-.36v-26.07h1901.44M1903.07,863.17H-3.07v30.78h.36v508.22h20.96v-470.38l18.21-50.57h385.64l18.2,50.56v468.03s0,2.35,0,2.35h29.24v-470.38l18.21-50.57h430.35l18.1,50.28-.56,2.23h.66v468.44h25.94v-470.38l18.21-50.57h390.23l18.2,50.56v468.03s0,2.35,0,2.35h33.26v-470.38l18.21-50.57h423.37l18.1,50.28-.56,2.23h.66v468.44h20.8v-508.22h.36v-30.78h0Z"/>
      </g>
      <g>
        <polygon class="st5" points="476.89 1400.98 476.89 934.21 507.54 884.02 527.17 884.02 487.84 931.79 487.84 1400.98 476.89 1400.98"/>
        <path class="st2" d="M524.68,885.2l-38.02,46.17h0s0,0,0,0v468.43h-8.6v-465.26l30.14-49.34h16.48M529.67,882.85h-22.79l-.69,1.13-30.14,49.34-.34.56v468.28h13.3v-468.43h1.33l-.93-2,37.08-45.03,3.17-3.85h0Z"/>
      </g>
      <g>
        <polygon class="st5" points="969.59 1400.98 969.59 934.21 1000.24 884.02 1019.87 884.02 980.54 931.79 980.54 1400.98 969.59 1400.98"/>
        <path class="st2" d="M1017.38,885.2l-38.02,46.17h0s0,0,0,0v468.43h-8.6v-465.26l30.14-49.34h16.48M1022.36,882.85h-22.79l-.69,1.13-30.14,49.34-.34.56v468.28h13.3v-468.43h1.33l-.93-2,37.08-45.03,3.17-3.85h0Z"/>
      </g>
      <g>
        <polygon class="st5" points="433.49 1400.98 433.49 931.7 404.37 884.02 424 884.02 442.11 934.34 442.11 1400.98 433.49 1400.98"/>
        <path class="st2" d="M423.17,885.2l17.76,49.34v465.26h-6.27v-468.43h0,0s-28.2-46.17-28.2-46.17h16.7M424.83,882.85h-22.55l2.19,3.58,27.63,45.24-.67,2.05h.9v468.44h10.98v-468.03l-.14-.39-17.76-49.34-.56-1.56h0Z"/>
      </g>
      <g>
        <polygon class="st5" points="1360.53 1400.98 1360.53 939.57 1322.93 892.77 1030.06 892.77 992.46 939.57 992.46 1400.98 982.09 1400.98 982.09 934.12 1023.35 884.02 1327.76 884.02 1369.02 934.12 1369.02 1400.98 1360.53 1400.98"/>
        <path class="st2" d="M1327.21,885.2l40.63,49.34v465.26h-6.14v-460.65l-38.21-47.57h-293.99l-38.21,47.57v460.65h-8.02v-465.26l40.63-49.34h303.3M1328.32,882.85h-305.52l-.71.86-40.63,49.34-.54.65v468.46h12.72v-462.17l36.99-46.04h291.73l36.99,46.04v462.17h10.84v-468.46l-.54-.65-40.63-49.34-.71-.86h0Z"/>
      </g>
      <g>
        <polygon class="st5" points="421.99 1400.98 421.99 932.55 421.26 932.55 421.77 931.52 382.66 884.02 402.29 884.02 432.94 934.21 432.94 1400.98 421.99 1400.98"/>
        <path class="st2" d="M401.63,885.2l30.14,49.34v465.26h-8.6v-468.43h0,0s-38.02-46.17-38.02-46.17h16.48M402.95,882.85h-22.79l3.17,3.85,37.08,45.03-.92,2h1.33v468.44h13.3v-468.28l-.34-.56-30.14-49.34-.69-1.13h0Z"/>
      </g>
      <g>
        <polygon class="st5" points="1875.11 1400.98 1875.11 931.7 1845.99 884.02 1865.62 884.02 1883.73 934.34 1883.73 1400.98 1875.11 1400.98"/>
        <path class="st2" d="M1864.79,885.2l17.76,49.34v465.26h-6.27v-468.43h0,0s-28.2-46.17-28.2-46.17h16.7M1866.44,882.85h-22.55l2.19,3.58,27.61,45.21-.75,2.09h.99v468.44h10.98v-468.03l-.14-.39-17.76-49.34-.56-1.56h0Z"/>
      </g>
      <g>
        <polygon class="st5" points="907.54 1400.98 907.54 939.57 869.94 892.77 538.04 892.77 500.44 939.57 500.44 1400.98 489.4 1400.98 489.4 934.12 530.65 884.02 875.18 884.02 916.44 934.12 916.44 1400.98 907.54 1400.98"/>
        <path class="st2" d="M874.63,885.2l40.63,49.34v465.26h-6.55v-460.65l-38.21-47.57h-333.03l-38.21,47.57v460.65h-8.69v-465.26l40.63-49.34h343.42M875.74,882.85h-345.64l-.71.86-40.63,49.34-.54.65v468.46h13.39v-462.17l36.99-46.04h330.77l36.99,46.04v462.17h11.25v-468.46l-.54-.65-40.63-49.34-.71-.86h0Z"/>
      </g>
      <g>
        <polygon class="st5" points="467.72 1400.98 467.72 934.34 485.83 884.02 505.46 884.02 476.34 931.7 476.34 1400.98 467.72 1400.98"/>
        <path class="st2" d="M503.36,885.2l-28.2,46.17h0s0,0,0,0v468.43h-6.27v-465.26l17.76-49.34h16.7M507.56,882.85h-22.55l-.56,1.56-17.76,49.34-.14.39v468.03h10.98v-468.43h.9l-.67-2.06,27.63-45.24,2.19-3.58h0Z"/>
      </g>
      <g>
        <polygon class="st5" points="918 1400.98 918 932.55 917.26 932.55 917.78 931.52 878.66 884.02 898.29 884.02 928.95 934.21 928.95 1400.98 918 1400.98"/>
        <path class="st2" d="M897.63,885.2l30.14,49.34v465.26h-8.6v-468.43h0,0s-38.02-46.17-38.02-46.17h16.48M898.95,882.85h-22.79l3.17,3.85,37.08,45.03-.92,2h1.33v468.44h13.3v-468.28l-.34-.56-30.14-49.34-.69-1.13h0Z"/>
      </g>
      <g>
        <polygon class="st5" points="929.49 1400.98 929.49 931.7 900.37 884.02 920 884.02 938.12 934.34 938.12 1400.98 929.49 1400.98"/>
        <path class="st2" d="M919.18,885.2l17.76,49.34v465.26h-6.27v-468.43h0,0s-28.2-46.17-28.2-46.17h16.7M920.83,882.85h-22.55l2.19,3.58,27.62,45.22-.71,2.07h.94v468.44h10.98v-468.03l-.14-.39-17.76-49.34-.56-1.56h0Z"/>
      </g>
      <g>
        <polygon class="st5" points="960.42 1400.98 960.42 934.34 978.53 884.02 998.16 884.02 969.04 931.7 969.04 1400.98 960.42 1400.98"/>
        <path class="st2" d="M996.06,885.2l-28.2,46.17h0s0,0,0,0v468.43h-6.27v-465.26l17.76-49.34h16.7M1000.25,882.85h-22.55l-.56,1.56-17.76,49.34-.14.39v468.03h10.98v-468.43h.9l-.67-2.06,27.63-45.24,2.19-3.58h0Z"/>
      </g>
      <g>
        <polygon class="st5" points="1429.48 1400.98 1429.48 934.21 1460.13 884.02 1479.77 884.02 1440.43 931.79 1440.43 1400.98 1429.48 1400.98"/>
        <path class="st2" d="M1477.27,885.2l-38.02,46.17h0s0,0,0,0v468.43h-8.6v-465.26l30.14-49.34h16.48M1482.26,882.85h-22.79l-.69,1.13-30.14,49.34-.34.56v468.28h13.3v-468.43h1.33l-.93-2,37.08-45.03,3.17-3.85h0Z"/>
      </g>
      <g>
        <polygon class="st5" points="1855.79 1400.98 1855.79 939.57 1818.19 892.77 1486.29 892.77 1448.7 939.57 1448.7 1400.98 1441.99 1400.98 1441.99 934.12 1483.24 884.02 1820.8 884.02 1862.05 934.12 1862.05 1400.98 1855.79 1400.98"/>
        <path class="st2" d="M1820.24,885.2l40.63,49.34v465.26h-3.91v-460.65l-38.21-47.57h-333.03l-38.21,47.57v460.65h-4.35v-465.26l40.63-49.34h336.45M1821.35,882.85h-338.67l-.71.86-40.63,49.34-.54.65v468.46h9.06v-462.17l36.99-46.04h330.77l36.99,46.04v462.17h8.61v-468.46l-.54-.65-40.63-49.34-.71-.86h0Z"/>
      </g>
      <g>
        <polygon class="st5" points="1420.31 1400.98 1420.31 934.34 1438.42 884.02 1458.05 884.02 1428.94 931.7 1428.93 1400.98 1420.31 1400.98"/>
        <path class="st2" d="M1455.96,885.2l-28.2,46.17h0s0,0,0,0v468.43h-6.27v-465.26l17.76-49.34h16.7M1460.15,882.85h-22.55l-.56,1.56-17.76,49.34-.14.39v468.03h10.98v-468.43h.85l-.64-2.04,27.64-45.26,2.19-3.58h0Z"/>
      </g>
      <g>
        <polygon class="st5" points="1382.07 1400.98 1382.07 931.7 1352.95 884.02 1372.58 884.02 1390.7 934.34 1390.7 1400.98 1382.07 1400.98"/>
        <path class="st2" d="M1371.75,885.2l17.76,49.34v465.26h-6.27v-468.43h0,0s-28.2-46.17-28.2-46.17h16.7M1373.41,882.85h-22.55l2.19,3.58,27.61,45.21-.75,2.09h.99v468.44h10.98v-468.03l-.14-.39-17.76-49.34-.56-1.56h0Z"/>
      </g>
      <g>
        <polygon class="st5" points="16.43 1400.98 16.43 934.34 34.54 884.02 54.17 884.02 25.05 931.7 25.05 1400.98 16.43 1400.98"/>
        <path class="st2" d="M52.07,885.2l-28.2,46.17h0s0,0,0,0v468.43h-6.27v-465.26l17.76-49.34h16.7M56.27,882.85h-22.55l-.56,1.56-17.76,49.34-.14.39v468.03h10.98v-468.43h.9l-.67-2.06,27.63-45.24,2.19-3.58h0Z"/>
      </g>
      <g>
        <polygon class="st5" points="25.6 1400.98 25.6 934.21 56.25 884.02 75.88 884.02 36.77 931.52 37.29 932.55 36.55 932.55 36.55 1400.98 25.6 1400.98"/>
        <path class="st2" d="M73.39,885.2l-38.02,46.17h0s0,0,0,0v468.43h-8.6v-465.26l30.14-49.34h16.48M78.38,882.85h-22.79l-.69,1.13-30.14,49.34-.34.56v468.28h13.3v-468.43h1.28l-.89-1.99,37.09-45.04,3.17-3.85h0Z"/>
      </g>
      <g>
        <polygon class="st5" points="412.27 1400.98 412.27 939.57 374.67 892.77 81.81 892.77 44.21 939.57 44.21 1400.98 38.11 1400.98 38.11 934.12 79.36 884.02 379.18 884.02 420.44 934.12 420.44 1400.98 412.27 1400.98"/>
        <path class="st2" d="M378.63,885.2l40.63,49.34v465.26h-5.81v-460.65l-38.21-47.57H81.24l-38.21,47.57v460.65h-3.75v-465.26l40.63-49.34h298.71M379.74,882.85H78.8l-.71.86-40.63,49.34-.54.65v468.46h8.45v-462.17l36.99-46.04h291.73l36.99,46.04v462.17h10.52v-468.46l-.54-.65-40.63-49.34-.71-.86h0Z"/>
      </g>
      <g>
        <polygon class="st5" points="1863.61 1400.98 1863.61 931.79 1824.28 884.02 1843.91 884.02 1874.56 934.21 1874.56 1400.98 1863.61 1400.98"/>
        <path class="st2" d="M1843.25,885.2l30.14,49.34v465.26h-8.6v-468.43h0,0s-38.02-46.17-38.02-46.17h16.48M1844.57,882.85h-22.79l3.17,3.85,37.08,45.03-.92,2h1.33v468.44h13.3v-468.28l-.34-.56-30.14-49.34-.69-1.13h0Z"/>
      </g>
      <g>
        <polygon class="st5" points="1370.58 1400.98 1370.58 932.55 1369.67 932.55 1370.32 931.48 1331.24 884.02 1350.87 884.02 1381.52 934.21 1381.52 1400.98 1370.58 1400.98"/>
        <path class="st2" d="M1350.21,885.2l30.14,49.34v465.26h-8.6v-468.43h0,0s-38.02-46.17-38.02-46.17h16.48M1351.53,882.85h-22.79l3.17,3.85,37.08,45.03-.92,2h1.33v468.44h13.3v-468.28l-.34-.56-30.14-49.34-.69-1.13h0Z"/>
      </g>
      <polygon class="st4" points="442.65 931.37 442.65 931.37 423.74 878.86 423.74 878.86 402.6 878.86 379.93 878.86 346.91 878.86 272.25 878.86 254.36 878.86 204.18 878.86 186.29 878.86 111.63 878.86 78.61 878.86 55.94 878.86 34.8 878.86 34.8 878.86 15.89 931.37 15.9 931.37 15.89 931.37 15.89 1399.81 15.89 1404.31 17.6 1404.31 17.6 1399.81 17.6 934.54 35.37 885.2 52.07 885.2 23.87 931.37 23.88 931.37 23.87 931.37 23.87 1399.81 23.87 1404.31 26.78 1404.31 26.78 1399.81 26.78 934.54 56.91 885.2 73.39 885.2 35.37 931.37 35.37 931.37 35.37 931.37 35.37 1399.81 35.37 1404.31 39.28 1404.31 39.28 1399.81 39.28 934.54 79.92 885.2 111.63 885.2 186.29 885.2 204.18 885.2 254.36 885.2 272.25 885.2 346.91 885.2 378.63 885.2 419.26 934.54 419.26 1399.81 419.26 1404.31 423.17 1404.31 423.17 1399.81 423.17 931.37 423.17 931.37 423.17 931.37 385.15 885.2 401.63 885.2 431.77 934.54 431.77 1399.81 431.77 1404.31 434.67 1404.31 434.67 1399.81 434.67 931.37 434.67 931.37 434.67 931.37 406.47 885.2 423.17 885.2 440.94 934.54 440.94 1399.81 440.94 1404.31 442.65 1404.31 442.65 1399.81 442.65 931.37 442.65 931.37"/>
      <polygon class="st4" points="938.65 931.37 938.65 931.37 919.75 878.86 919.75 878.86 898.6 878.86 875.93 878.86 842.91 878.86 768.25 878.86 705.65 878.86 700.18 878.86 637.58 878.86 562.92 878.86 529.9 878.86 507.23 878.86 486.09 878.86 486.09 878.86 467.18 931.37 467.19 931.37 467.18 931.37 467.18 1399.81 467.18 1404.31 468.89 1404.31 468.89 1399.81 468.89 934.54 486.66 885.2 503.36 885.2 475.16 931.37 475.17 931.37 475.16 931.37 475.16 1399.81 475.16 1404.31 478.07 1404.31 478.07 1399.81 478.07 934.54 508.2 885.2 524.68 885.2 486.66 931.37 486.66 931.37 486.66 931.37 486.66 1399.81 486.66 1404.31 490.57 1404.31 490.57 1399.81 490.57 934.54 531.21 885.2 562.92 885.2 637.58 885.2 700.18 885.2 705.65 885.2 768.25 885.2 842.91 885.2 874.63 885.2 915.26 934.54 915.26 1399.81 915.26 1404.31 919.17 1404.31 919.17 1399.81 919.17 931.37 919.17 931.37 919.17 931.37 881.15 885.2 897.63 885.2 927.77 934.54 927.77 1399.81 927.77 1404.31 930.67 1404.31 930.67 1399.81 930.67 931.37 930.67 931.37 930.67 931.37 902.47 885.2 919.18 885.2 936.94 934.54 936.94 1399.81 936.94 1404.31 938.65 1404.31 938.65 1399.81 938.65 931.37 938.65 931.37"/>
      <polygon class="st4" points="1391.23 931.37 1391.23 931.37 1372.32 878.86 1372.32 878.86 1351.18 878.86 1328.51 878.86 1295.49 878.86 1220.83 878.86 1198.35 878.86 1152.76 878.86 1130.28 878.86 1055.62 878.86 1022.6 878.86 999.93 878.86 978.79 878.86 978.79 878.86 959.88 931.37 959.88 931.37 959.88 931.37 959.88 1399.81 959.88 1404.31 961.59 1404.31 961.59 1399.81 961.59 934.54 979.36 885.2 996.06 885.2 967.86 931.37 967.86 931.37 967.86 931.37 967.86 1399.81 967.86 1404.31 970.76 1404.31 970.76 1399.81 970.76 934.54 1000.9 885.2 1017.38 885.2 979.36 931.37 979.36 931.37 979.36 931.37 979.36 1399.81 979.36 1404.31 983.27 1404.31 983.27 1399.81 983.27 934.54 1023.9 885.2 1055.62 885.2 1130.28 885.2 1152.76 885.2 1198.35 885.2 1220.83 885.2 1295.49 885.2 1327.21 885.2 1367.84 934.54 1367.84 1399.81 1367.84 1404.31 1371.75 1404.31 1371.75 1399.81 1371.75 931.37 1371.75 931.37 1371.75 931.37 1333.73 885.2 1350.21 885.2 1380.35 934.54 1380.35 1399.81 1380.35 1404.31 1383.25 1404.31 1383.25 1399.81 1383.25 931.37 1383.25 931.37 1383.25 931.37 1355.05 885.2 1371.75 885.2 1389.52 934.54 1389.52 1399.81 1389.52 1404.31 1391.23 1404.31 1391.23 1399.81 1391.23 931.37 1391.23 931.37"/>
      <polygon class="st4" points="1884.26 931.37 1884.26 931.37 1865.36 878.86 1865.36 878.86 1844.21 878.86 1821.55 878.86 1788.53 878.86 1713.87 878.86 1658.24 878.86 1645.8 878.86 1590.17 878.86 1515.52 878.86 1482.49 878.86 1459.83 878.86 1438.68 878.86 1438.68 878.86 1419.78 931.37 1419.78 931.37 1419.78 931.37 1419.78 1399.81 1419.78 1404.31 1421.49 1404.31 1421.49 1399.81 1421.49 934.54 1439.25 885.2 1455.96 885.2 1427.76 931.37 1427.76 931.37 1427.76 931.37 1427.76 1399.81 1427.76 1404.31 1430.66 1404.31 1430.66 1399.81 1430.66 934.54 1460.79 885.2 1477.27 885.2 1439.25 931.37 1439.26 931.37 1439.25 931.37 1439.25 1399.81 1439.25 1404.31 1443.16 1404.31 1443.16 1399.81 1443.16 934.54 1483.8 885.2 1515.52 885.2 1590.17 885.2 1645.8 885.2 1658.24 885.2 1713.87 885.2 1788.53 885.2 1820.24 885.2 1860.88 934.54 1860.88 1399.81 1860.88 1404.31 1864.79 1404.31 1864.79 1399.81 1864.79 931.37 1864.79 931.37 1864.79 931.37 1826.77 885.2 1843.25 885.2 1873.38 934.54 1873.38 1399.81 1873.38 1404.31 1876.29 1404.31 1876.29 1399.81 1876.29 931.37 1876.28 931.37 1876.29 931.37 1848.09 885.2 1864.79 885.2 1882.55 934.54 1882.55 1399.81 1882.55 1404.31 1884.26 1404.31 1884.26 1399.81 1884.26 931.37 1884.26 931.37"/>
    </g>
  </g>
  <g id="Layer_3">
    <g>
      <g>
        <polygon class="st5" points="847.05 1101.5 847.05 524.05 845.53 524.05 846.45 522.85 768.78 464.68 809.08 464.68 869.61 525.81 869.61 1101.5 847.05 1101.5"/>
        <path class="st2" d="M808.45,466.18l59.66,60.24v573.58h-19.56v-577.45h0,0s-75.27-56.38-75.27-56.38h35.16M809.7,463.18h-45.43l7.21,5.4,72.84,54.56-1.84,2.41h3.06v577.45h25.56v-577.81l-.87-.88-59.66-60.24-.88-.89h0Z"/>
      </g>
      <g>
        <polygon class="st5" points="42.74 1101.5 42.74 525.81 103.28 464.68 142.85 464.68 65.18 522.85 66.09 524.05 64.58 524.05 64.58 1101.5 42.74 1101.5"/>
        <path class="st2" d="M138.34,466.18l-75.27,56.37h0s0,0,0,0v577.45h-18.83v-573.58l59.66-60.24h34.44M147.35,463.18h-44.7l-.88.89-59.66,60.24-.87.88v577.81h24.83v-577.45h3.06l-1.84-2.42,72.85-54.56,7.21-5.4h0Z"/>
      </g>
      <g>
        <polygon class="st5" points="825.24 1101.5 825.24 539.72 749.94 482.54 163.97 482.54 88.67 539.72 88.67 1101.5 69.32 1101.5 69.32 525.67 150.76 464.68 760.87 464.68 842.31 525.67 842.31 1101.5 825.24 1101.5"/>
        <path class="st2" d="M760.37,466.18l80.44,60.24v573.58h-14.07v-561.02l-76.3-57.93H163.46l-76.3,57.93v561.02h-16.35v-573.58l80.44-60.24h609.11M761.37,463.18H150.26l-.8.6-80.44,60.24-1.2.9v578.08h22.35v-562.54l74.31-56.42h584.96l74.31,56.42v562.54h20.07v-578.08l-1.2-.9-80.44-60.24-.8-.6h0Z"/>
      </g>
      <g>
        <polygon class="st5" points="24.22 1101.5 24.22 526.02 60.03 464.68 97.92 464.68 40.32 522.84 40.93 524.05 40 524.05 40 1101.5 24.22 1101.5"/>
        <path class="st2" d="M94.32,466.18l-55.82,56.37h0s0,0,0,0v577.45h-12.78v-573.58l35.17-60.24h33.44M101.51,463.18h-42.35l-.87,1.49-35.17,60.24-.41.7v577.39h18.78v-577.45h2.1l-1.38-2.49,54.24-54.77,5.06-5.11h0Z"/>
      </g>
      <g>
        <polygon class="st5" points="957.6 1101.5 957.6 525.81 1018.14 464.68 1055.89 464.68 978.16 522.9 978.93 524.05 977.62 524.05 977.62 1101.5 957.6 1101.5"/>
        <path class="st2" d="M1051.39,466.18l-75.27,56.37h0s0,0,0,0v577.45h-17.02v-573.58l59.66-60.24h32.62M1060.4,463.18h-42.89l-.88.89-59.66,60.24-.87.88v577.81h23.02v-577.45h3.06l-1.84-2.42,72.85-54.56,7.21-5.4h0Z"/>
      </g>
      <g>
        <polygon class="st5" points="1859.04 1101.5 1859.04 524.05 1858.11 524.05 1858.72 522.84 1801.12 464.68 1838.96 464.68 1874.77 526.02 1874.77 1101.5 1859.04 1101.5"/>
        <path class="st2" d="M1838.1,466.18l35.17,60.24v573.58h-12.73v-577.45h0,0s-55.82-56.38-55.82-56.38h33.39M1839.82,463.18h-42.3l5.06,5.11,54.24,54.77-1.38,2.49h2.1v577.45h18.73v-577.39l-.41-.7-35.17-60.24-.87-1.49h0Z"/>
      </g>
      <g>
        <polygon class="st5" points="939.45 1101.5 939.45 526.02 975.25 464.68 1012.78 464.68 955.18 522.84 955.79 524.05 954.86 524.05 954.86 1101.5 939.45 1101.5"/>
        <path class="st2" d="M1009.18,466.18l-55.82,56.37h0s0,0,0,0v577.45h-12.41v-573.58l35.17-60.24h33.07M1016.38,463.18h-41.98l-.87,1.49-35.17,60.24-.41.7v577.39h18.41v-577.45h2.1l-1.38-2.49,54.24-54.77,5.06-5.11h0Z"/>
      </g>
      <g>
        <polygon class="st5" points="872.35 1101.5 872.35 524.05 871.23 524.05 871.98 522.79 814.43 464.68 851.96 464.68 887.76 526.02 887.76 1101.5 872.35 1101.5"/>
        <path class="st2" d="M851.1,466.18l35.17,60.24v573.58h-12.41v-577.45h0,0s-55.82-56.38-55.82-56.38h33.07M852.82,463.18h-41.98l5.06,5.11,54.22,54.75-1.43,2.51h2.17v577.45h18.41v-577.39l-.41-.7-35.17-60.24-.87-1.49h0Z"/>
      </g>
      <g>
        <polygon class="st5" points="1814.09 1101.5 1814.09 539.72 1738.79 482.54 1074.88 482.54 999.58 539.72 999.58 1101.5 982.36 1101.5 982.36 525.67 1063.8 464.68 1749.77 464.68 1831.21 525.67 1831.21 1101.5 1814.09 1101.5"/>
        <path class="st2" d="M1749.28,466.18l80.44,60.24v573.58h-14.13v-561.02l-76.3-57.93h-664.92l-76.3,57.93v561.02h-14.21v-573.58l80.44-60.24h684.97M1750.27,463.18h-686.97l-.8.6-80.44,60.24-1.2.9v578.08h20.21v-562.53l74.31-56.42h662.9l74.31,56.42v562.53h20.13v-578.08l-1.2-.9-80.44-60.24-.8-.6h0Z"/>
      </g>
      <g>
        <polygon class="st5" points="1875.15 1101.5 1875.15 522.95 1838.37 459.94 975.85 459.94 939.07 522.95 939.06 1101.5 888.15 1101.5 888.15 522.95 851.36 459.94 60.62 459.94 23.84 522.95 23.83 1101.5 -.96 1101.5 -.96 482.54 -1.68 482.54 -1.68 428.99 1898.9 428.99 1898.9 428.87 -1.68 428.87 -1.68 418.66 1898.9 418.66 1898.9 417.06 -1.68 417.06 -1.68 406.89 1899.11 406.89 1899.11 400.7 -1.68 400.7 -1.68 387.83 1904.44 387.83 1904.44 482.54 1903.72 482.54 1903.72 1101.5 1875.15 1101.5"/>
        <path class="st2" d="M1902.94,389.33v91.72h-.72v618.96h-25.57v-577.45h0,0s-37.42-64.12-37.42-64.12h0s-42.18,0-42.18,0h-822.06s-37.42,64.11-37.42,64.11h0s0,0,0,0v577.45h-47.92v-577.45h0,0s-37.42-64.12-37.42-64.12h0s-41.86,0-41.86,0H59.76s-37.42,64.11-37.42,64.11h0s0,0,0,0v577.45H.54V481.04H-.18v-50.55h1900.58v-3.12H-.18v-7.21h1900.58v-4.6H-.18v-7.17h1900.8v-9.19H-.18v-9.87h1903.12M1905.94,386.33H-3.18v15.87h1900.8v3.19H-3.18v78.65h.72v618.96h27.8v-577.45h1.16l-.89-2.67,35.87-61.45h789.02l35.87,61.45-.89,2.66h1.16v577.45h53.92v-577.45h1.16l-.89-2.67,35.87-61.45h860.79l35.87,61.45-.89,2.66h1.16v577.45h31.57V484.04h.72v-97.72h0Z"/>
      </g>
      <g>
        <polygon class="st5" points="1835.96 1101.5 1835.96 524.05 1834.64 524.05 1835.42 522.9 1757.69 464.68 1795.76 464.68 1856.3 525.81 1856.3 1101.5 1835.96 1101.5"/>
        <path class="st2" d="M1795.14,466.18l59.66,60.24v573.58h-17.34v-577.45h0,0s-75.27-56.38-75.27-56.38h32.95M1796.39,463.18h-43.21l7.21,5.4,72.84,54.56-1.84,2.41h3.06v577.45h23.34v-577.81l-.87-.88-59.66-60.24-.88-.89h0Z"/>
      </g>
      <rect class="st1" x="-.18" y="399.2" width="1900.8" height="9.19"/>
      <polygon class="st1" points="889.65 522.55 889.65 522.55 852.22 458.44 852.22 458.44 810.36 458.44 762.95 458.44 700.12 458.44 552.32 458.44 496.6 458.44 415.03 458.44 360.03 458.44 211.86 458.44 148.68 458.44 101.99 458.44 59.76 458.44 59.76 458.44 22.33 522.55 22.34 522.55 22.33 522.55 22.33 1100 25.72 1100 25.72 526.42 60.89 466.18 94.32 466.18 38.5 522.55 38.5 522.55 38.5 522.55 38.5 1100 44.24 1100 44.24 526.42 103.9 466.18 138.34 466.18 63.08 522.55 63.08 522.55 63.08 522.55 63.08 1100 70.82 1100 70.82 526.42 151.26 466.18 211.86 466.18 360.03 466.18 415.03 466.18 496.6 466.18 552.32 466.18 700.12 466.18 760.37 466.18 840.81 526.42 840.81 1100 848.55 1100 848.55 522.55 848.55 522.55 848.55 522.55 773.29 466.18 808.45 466.18 868.11 526.42 868.11 1100 873.85 1100 873.85 522.55 873.85 522.55 873.85 522.55 818.03 466.18 851.1 466.18 886.26 526.42 886.26 1100 889.65 1100 889.65 522.55 889.65 522.55"/>
      <polygon class="st1" points="1876.65 522.55 1876.65 522.55 1839.23 458.44 1839.23 458.44 1797.05 458.44 1751.86 458.44 1687.12 458.44 1539.01 458.44 1409.64 458.44 1403.94 458.44 1274.89 458.44 1127.09 458.44 1061.72 458.44 1016.85 458.44 974.99 458.44 974.99 458.44 937.56 522.55 937.57 522.55 937.56 522.55 937.56 1100 940.95 1100 940.95 526.42 976.12 466.18 1009.18 466.18 953.36 522.55 953.36 522.55 953.36 522.55 953.36 1100 959.1 1100 959.1 526.42 1018.76 466.18 1051.39 466.18 976.12 522.55 976.13 522.55 976.12 522.55 976.12 1100 983.86 1100 983.86 526.42 1064.3 466.18 1127.09 466.18 1274.89 466.18 1403.94 466.18 1409.64 466.18 1539.01 466.18 1687.12 466.18 1749.28 466.18 1829.71 526.42 1829.71 1100 1837.46 1100 1837.46 522.55 1837.45 522.55 1837.46 522.55 1762.19 466.18 1795.14 466.18 1854.8 526.42 1854.8 1100 1860.54 1100 1860.54 522.55 1860.53 522.55 1860.54 522.55 1804.72 466.18 1838.1 466.18 1873.27 526.42 1873.27 1100 1876.65 1100 1876.65 522.55 1876.65 522.55"/>
      <polygon class="st1" points="1900.4 415.56 -.18 415.56 -.4 415.56 -.4 420.16 -.18 420.16 1900.4 420.16 1900.4 415.56"/>
      <polygon class="st1" points="1900.4 427.37 -.18 427.37 -.4 427.37 -.4 430.49 -.18 430.49 1900.4 430.49 1900.4 427.37"/>
    </g>
  </g>
</svg>